<svg viewBox="0 0 50 50" fill="none" xmlns="http://www.w3.org/2000/svg">
  <path d="M24.9998 4.16666C13.4998 4.16666 4.1665 13.5 4.1665 25C4.1665 36.5 13.4998 45.8333 24.9998 45.8333C36.4998 45.8333 45.8332 36.5 45.8332 25C45.8332 13.5 36.4998 4.16666 24.9998 4.16666ZM14.729 38.0833C15.6248 36.2083 21.0832 34.375 24.9998 34.375C28.9165 34.375 34.3957 36.2083 35.2707 38.0833C32.4373 40.3333 28.8748 41.6667 24.9998 41.6667C21.1248 41.6667 17.5623 40.3333 14.729 38.0833ZM38.2498 35.0625C35.2707 31.4375 28.0415 30.2083 24.9998 30.2083C21.9582 30.2083 14.729 31.4375 11.7498 35.0625C9.62484 32.2708 8.33317 28.7917 8.33317 25C8.33317 15.8125 15.8123 8.33332 24.9998 8.33332C34.1873 8.33332 41.6665 15.8125 41.6665 25C41.6665 28.7917 40.3748 32.2708 38.2498 35.0625V35.0625ZM24.9998 12.5C20.9582 12.5 17.7082 15.75 17.7082 19.7917C17.7082 23.8333 20.9582 27.0833 24.9998 27.0833C29.0415 27.0833 32.2915 23.8333 32.2915 19.7917C32.2915 15.75 29.0415 12.5 24.9998 12.5ZM24.9998 22.9167C23.2707 22.9167 21.8748 21.5208 21.8748 19.7917C21.8748 18.0625 23.2707 16.6667 24.9998 16.6667C26.729 16.6667 28.1248 18.0625 28.1248 19.7917C28.1248 21.5208 26.729 22.9167 24.9998 22.9167Z" fill="white"/>
</svg>
